<?xml version="1.0" encoding="UTF-8" standalone="no"?>
<!-- Generated by IcoMoon.io -->

<svg
   xmlns:dc="http://purl.org/dc/elements/1.1/"
   xmlns:cc="http://creativecommons.org/ns#"
   xmlns:rdf="http://www.w3.org/1999/02/22-rdf-syntax-ns#"
   xmlns:svg="http://www.w3.org/2000/svg"
   xmlns="http://www.w3.org/2000/svg"
   xmlns:sodipodi="http://sodipodi.sourceforge.net/DTD/sodipodi-0.dtd"
   xmlns:inkscape="http://www.inkscape.org/namespaces/inkscape"
   version="1.1"
   width="30"
   height="32"
   viewBox="0 0 30 32"
   id="svg2"
   inkscape:version="0.91 r"
   sodipodi:docname="gplus.svg">
  <metadata
     id="metadata10">
    <rdf:RDF>
      <cc:Work
         rdf:about="">
        <dc:format>image/svg+xml</dc:format>
        <dc:type
           rdf:resource="http://purl.org/dc/dcmitype/StillImage" />
      </cc:Work>
    </rdf:RDF>
  </metadata>
  <defs
     id="defs8" />
  <sodipodi:namedview
     pagecolor="#ffffff"
     bordercolor="#666666"
     borderopacity="1"
     objecttolerance="10"
     gridtolerance="10"
     guidetolerance="10"
     inkscape:pageopacity="0"
     inkscape:pageshadow="2"
     inkscape:window-width="1291"
     inkscape:window-height="780"
     id="namedview6"
     showgrid="false"
     inkscape:zoom="7.375"
     inkscape:cx="-5"
     inkscape:cy="16"
     inkscape:window-x="69"
     inkscape:window-y="38"
     inkscape:window-maximized="0"
     inkscape:current-layer="svg2" />
  <path
     d="m 13.429,15.357 q 0,0.643 0.571,1.259 0.571,0.616 1.384,1.214 0.813,0.598 1.616,1.313 0.803,0.715 1.375,1.857 0.572,1.142 0.571,2.536 0,1.607 -0.857,3.089 -1.286,2.179 -3.768,3.205 Q 11.839,30.856 9,30.857 6.643,30.857 4.598,30.116 2.553,29.375 1.535,27.661 0.874,26.59 0.874,25.322 q 0,-1.446 0.795,-2.679 0.795,-1.233 2.116,-2.054 2.339,-1.464 7.214,-1.786 -0.571,-0.75 -0.848,-1.321 -0.277,-0.571 -0.277,-1.304 0,-0.643 0.375,-1.518 -0.821,0.071 -1.214,0.071 -2.643,0 -4.455,-1.723 Q 2.768,11.285 2.767,8.642 2.767,7.178 3.41,5.803 4.053,4.428 5.178,3.464 6.553,2.285 8.437,1.714 10.321,1.143 12.321,1.143 l 7.464,0 -2.464,1.571 -2.339,0 q 1.321,1.125 2,2.375 0.679,1.25 0.679,2.857 0,1.286 -0.438,2.312 -0.438,1.026 -1.054,1.661 -0.616,0.635 -1.241,1.161 -0.625,0.526 -1.063,1.098 -0.438,0.572 -0.438,1.179 z m -2.607,-1.714 q 0.679,0 1.393,-0.295 0.714,-0.295 1.179,-0.777 Q 14.34,11.553 14.34,9.732 14.34,8.696 14.036,7.5 13.732,6.304 13.17,5.187 12.608,4.07 11.661,3.339 10.714,2.608 9.572,2.607 8.822,2.607 8.099,2.955 7.376,3.303 6.929,3.893 6.09,4.947 6.09,6.75 q 0,0.821 0.179,1.741 0.179,0.92 0.563,1.839 0.384,0.919 0.929,1.652 0.545,0.733 1.339,1.196 0.794,0.463 1.723,0.464 z m 0.036,15.589 q 1.036,0 1.991,-0.232 0.955,-0.232 1.768,-0.696 0.813,-0.464 1.304,-1.304 0.491,-0.84 0.491,-1.946 0,-0.446 -0.125,-0.875 -0.125,-0.429 -0.259,-0.75 -0.134,-0.321 -0.482,-0.741 -0.348,-0.42 -0.527,-0.625 Q 14.84,21.858 14.331,21.447 13.822,21.036 13.679,20.929 13.536,20.822 12.938,20.393 12.34,19.964 12.286,19.929 12,19.893 11.429,19.893 q -0.946,0 -1.875,0.125 -0.929,0.125 -1.92,0.446 -0.991,0.321 -1.732,0.821 -0.741,0.5 -1.223,1.33 -0.482,0.83 -0.482,1.884 0,1.25 0.625,2.205 0.625,0.955 1.634,1.482 1.009,0.527 2.125,0.786 1.116,0.259 2.277,0.259 z m 14.464,-15.643 3.804,0 0,1.929 -3.804,0 0,3.911 -1.875,0 0,-3.911 -3.786,0 0,-1.929 3.786,0 0,-3.875 1.875,0 0,3.875 z"
     id="path4"
     style="fill:#ffffff"
     inkscape:connector-curvature="0" />
</svg>
